<svg width="17" height="18" viewBox="0 0 17 18" fill="none" xmlns="http://www.w3.org/2000/svg">
<path d="M6.16923 14.7172C2.47692 15.8586 2.47692 12.8149 1 12.4344M11.3385 17V14.0552C11.3662 13.6923 11.3186 13.3276 11.1989 12.9852C11.0792 12.6427 10.8902 12.3305 10.6443 12.0691C12.9631 11.8028 15.4 10.8973 15.4 6.74261C15.3998 5.68022 15.0032 4.65856 14.2923 3.88911C14.6289 2.95963 14.6051 1.93225 14.2258 1.02039C14.2258 1.02039 13.3545 0.754061 11.3385 2.14657C9.64591 1.67389 7.86178 1.67389 6.16923 2.14657C4.15323 0.754061 3.28185 1.02039 3.28185 1.02039C2.90255 1.93225 2.87875 2.95963 3.21538 3.88911C2.49917 4.66427 2.10217 5.69516 2.10769 6.76544C2.10769 10.8897 4.54461 11.7952 6.86338 12.092C6.62043 12.3507 6.43306 12.6592 6.31346 12.9974C6.19386 13.3357 6.14472 13.6961 6.16923 14.0552V17" stroke="#1F1F1F" stroke-width="1.5" stroke-linecap="round" stroke-linejoin="round"/>
</svg>
